# File created by Blade
# Date/Time:  Thu Jan 22 16:31:19 2015
#---------------------------------------------------------
:version 1.10
:name HOM
:units
  mass 1.0
  length 1.000000
  angle deg
:documentation
     Acclaim Skeleton File
:root
   axis xyz
   order TX TY TZ RX RY RZ
   position 0.000000 0.000000 0.000000
   orientation 0 0 0
:bonedata
   begin
      id 1
      name RightUpLeg_dum
      direction -1.000000 0.000000 0.000000
      length 3.766986
      axis 0.0 0.0 0.0 xyz
   end
   begin
      id 2
      name LeftUpLeg_dum
      direction 1.000000 0.000000 0.000000
      length 3.766986
      axis 0.0 0.0 0.0 xyz
   end
   begin
      id 3
      name Spine_dum
      direction 0.000000 1.000000 0.000000
      length 7.779697
      axis 0.0 0.0 0.0 xyz
   end
   begin
      id 4
      name RightUpLeg
      direction 0.000000 -1.000000 0.000000
      length 18.017682
      axis 0.0 0.0 0.0 xyz
      dof rx ry rz
   end
   begin
      id 5
      name RightLeg
      direction 0.000000 -1.000000 0.000000
      length 16.881075
      axis 0.0 0.0 0.0 xyz
      dof rx ry rz
   end
   begin
      id 6
      name RightFoot
      direction 0.000000 -0.258819 0.965926
      length 5.770812
      axis 15.0 0.0 0.0 xyz
      dof rx ry rz
   end
   begin
      id 7
      name RightToeBase
      direction 0.000000 0.000000 1.000000
      length 2.952750
      axis 0.0 0.0 0.0 xyz
      dof rx ry rz
   end
   begin
      id 8
      name LeftUpLeg
      direction 0.000000 -1.000000 0.000000
      length 18.017682
      axis 0.0 0.0 0.0 xyz
      dof rx ry rz
   end
   begin
      id 9
      name LeftLeg
      direction 0.000000 -1.000000 0.000000
      length 16.881075
      axis 0.0 0.0 0.0 xyz
      dof rx ry rz
   end
   begin
      id 10
      name LeftFoot
      direction 0.000000 -0.258819 0.965926
      length 5.770812
      axis 15.0 0.0 0.0 xyz
      dof rx ry rz
   end
   begin
      id 11
      name LeftToeBase
      direction 0.000000 0.000000 1.000000
      length 2.952750
      axis 0.0 0.0 0.0 xyz
      dof rx ry rz
   end
   begin
      id 12
      name Spine
      direction 0.000000 1.000000 0.000000
      length 0.000000
      axis 0.0 0.0 0.0 xyz
      dof rx ry rz
   end
   begin
      id 13
      name Spine_dum1
      direction 0.000000 1.000000 0.000000
      length 10.941760
      axis 0.0 0.0 0.0 xyz
   end
   begin
      id 14
      name Spine_dum2
      direction 0.000000 1.000000 0.000000
      length 10.941760
      axis 0.0 0.0 0.0 xyz
   end
   begin
      id 15
      name Spine_dum3
      direction 0.000000 1.000000 0.000000
      length 16.646042
      axis 0.0 0.0 0.0 xyz
   end
   begin
      id 16
      name RightShoulder
      direction -1.000000 0.000000 0.000000
      length 7.708937
      axis 0.0 0.0 90.0 xyz
      dof rx ry rz
   end
   begin
      id 17
      name RightArm
      direction -1.000000 0.000000 0.000000
      length 11.521345
      axis 0.0 0.0 90.0 xyz
      dof rx ry rz
   end
   begin
      id 18
      name RightForeArm
      direction -1.000000 0.000000 0.000000
      length 10.175898
      axis 0.0 0.0 90.0 xyz
      dof ry rz rx
   end
   begin
      id 19
      name RightHand
      direction -1.000000 0.000000 0.000000
      length 0.000000
      axis 0.0 0.0 90.0 xyz
      dof rx ry rz
   end
   begin
      id 20
      name RightHand_dum1
      direction -1.000000 0.000000 0.000000
      length 3.937000
      axis 0.0 0.0 90.0 xyz
   end
   begin
      id 21
      name RightHand_dum2
      direction 0.000000 0.000000 0.000000
      length 0.000000
      axis 0.0 0.0 90.0 xyz
   end
   begin
      id 22
      name RightHandThumb1
      direction 0.000000 0.000000 1.000000
      length 3.937000
      axis 0.0 0.0 90.0 xyz
      dof rx rz ry
   end
   begin
      id 23
      name LeftShoulder
      direction 1.000000 0.000000 0.000000
      length 7.708937
      axis 0.0 0.0 -90.0 xyz
      dof rx ry rz
   end
   begin
      id 24
      name LeftArm
      direction 1.000000 0.000000 0.000000
      length 11.521345
      axis 0.0 0.0 -90.0 xyz
      dof rx ry rz
   end
   begin
      id 25
      name LeftForeArm
      direction 1.000000 0.000000 0.000000
      length 10.175898
      axis 0.0 0.0 -90.0 xyz
      dof ry rz rx
   end
   begin
      id 26
      name LeftHand
      direction 1.000000 0.000000 0.000000
      length 0.000000
      axis 0.0 0.0 -90.0 xyz
      dof rx ry rz
   end
   begin
      id 27
      name LeftHand_dum1
      direction 1.000000 0.000000 0.000000
      length 3.937000
      axis 0.0 0.0 -90.0 xyz
   end
   begin
      id 28
      name LeftHand_dum2
      direction 0.000000 0.000000 0.000000
      length 0.000000
      axis 0.0 0.0 -90.0 xyz
   end
   begin
      id 29
      name LeftHandThumb1
      direction 0.000000 0.000000 1.000000
      length 3.937000
      axis 0.0 0.0 -90.0 xyz
      dof rx rz ry
   end
   begin
      id 30
      name Head
      direction 0.000000 1.000000 0.000000
      length 4.527550
      axis 0.0 0.0 0.0 xyz
      dof rx ry rz
   end
:hierarchy
   begin
      root RightUpLeg_dum LeftUpLeg_dum Spine_dum
      RightUpLeg_dum RightUpLeg
      LeftUpLeg_dum LeftUpLeg
      Spine_dum Spine
      RightUpLeg RightLeg
      RightLeg RightFoot
      RightFoot RightToeBase
      LeftUpLeg LeftLeg
      LeftLeg LeftFoot
      LeftFoot LeftToeBase
      Spine Spine_dum1 Spine_dum2 Spine_dum3
      Spine_dum1 RightShoulder
      Spine_dum2 LeftShoulder
      Spine_dum3 Head
      RightShoulder RightArm
      RightArm RightForeArm
      RightForeArm RightHand
      RightHand RightHand_dum1 RightHand_dum2
      RightHand_dum2 RightHandThumb1
      LeftShoulder LeftArm
      LeftArm LeftForeArm
      LeftForeArm LeftHand
      LeftHand LeftHand_dum1 LeftHand_dum2
      LeftHand_dum2 LeftHandThumb1
   end

# File created by Blade
# Date/Time:  Thu Jan 22 16:31:11 2015
# Frame Rate: 120.000 fps
#------------------------------------------------------
:FULLY-SPECIFIED
:DEGREES
200
root 17.767522 31.383529 2.932304 9.111554 20.034471 1.265223
RightUpLeg 13.052736 -17.252887 -32.470799
RightLeg -7.451912 -0.000000 0.000000
RightFoot -10.633068 -18.745659 43.513905
RightToeBase 9.886287 -0.000000 -0.000000
LeftUpLeg -45.304043 25.053545 9.925203
LeftLeg 57.863682 -0.000000 -0.000000
LeftFoot -14.507364 -16.014352 -28.805430
LeftToeBase 16.209519 -0.000000 -0.000000
Spine 18.941972 -11.675099 -11.796309
RightShoulder -7.055661 -17.412756 -18.018502
RightArm 4.364508 33.016541 54.162981
RightForeArm 18.115222 0.000000 23.307672
RightHand 8.525339 -0.000000 -13.516296
RightHandThumb1 -24.326973 -0.000000 -32.862282
LeftShoulder -23.697330 34.333658 11.186321
LeftArm 49.765004 -43.502359 -65.013411
LeftForeArm 35.687874 0.000000 11.324857
LeftHand -17.465369 -0.000000 -0.412409
LeftHandThumb1 -26.253704 0.000000 33.147579
Head -4.321670 12.009219 -4.106861
201
root 17.775300 31.383030 2.863938 9.626924 20.409881 1.305878
RightUpLeg 12.766324 -17.453991 -32.405257
RightLeg -7.469175 -0.000000 0.000000
RightFoot -10.535960 -18.907152 43.437556
RightToeBase 9.827574 -0.000000 -0.000000
LeftUpLeg -46.134971 25.489872 9.353557
LeftLeg 57.812659 -0.000000 -0.000000
LeftFoot -14.942241 -14.984664 -28.761037
LeftToeBase 16.917133 -0.000000 -0.000000
Spine 19.064321 -11.978971 -12.312649
RightShoulder -7.115183 -17.374725 -18.009328
RightArm 4.180754 33.038639 54.131146
RightForeArm 18.173256 -0.000000 23.305940
RightHand 8.563048 -0.000000 -13.466781
RightHandThumb1 -24.326973 -0.000000 -32.862282
LeftShoulder -23.526248 34.205324 11.334175
LeftArm 49.710057 -43.489863 -65.061971
LeftForeArm 35.708679 0.000000 11.231270
LeftHand -17.484387 -0.000000 -0.303506
LeftHandThumb1 -26.253704 0.000000 33.147579
Head -4.581971 11.945227 -3.964309
202
root 17.784451 31.382145 2.798119 10.122786 20.796571 1.365732
RightUpLeg 12.535671 -17.621057 -32.357358
RightLeg -7.530779 -0.000000 0.000000
RightFoot -10.487057 -19.133069 43.447000
RightToeBase 9.739524 -0.000000 -0.000000
LeftUpLeg -46.952770 25.902066 8.725556
LeftLeg 57.747734 -0.000000 -0.000000
LeftFoot -15.739238 -13.287112 -27.893470
LeftToeBase 16.399369 -0.000000 -0.000000
Spine 19.223283 -12.319562 -12.864164
RightShoulder -7.105070 -17.368291 -18.010246
RightArm 4.000979 33.074639 54.071000
RightForeArm 18.224335 -0.000000 23.253148
RightHand 8.607917 -0.000000 -13.447766
RightHandThumb1 -24.326973 -0.000000 -32.862282
LeftShoulder -23.379989 34.112860 11.461520
LeftArm 49.699604 -43.505524 -65.130326
LeftForeArm 35.707227 0.000000 11.134488
LeftHand -17.562958 -0.000000 -0.459558
LeftHandThumb1 -26.253704 0.000000 33.147579
Head -4.817596 11.846346 -3.872147
203
root 17.794383 31.375903 2.739931 10.547120 21.163575 1.378115
RightUpLeg 12.381693 -17.786104 -32.296769
RightLeg -7.648395 -0.000000 0.000000
RightFoot -10.413791 -19.274713 43.538031
RightToeBase 9.710852 -0.000000 -0.000000
LeftUpLeg -47.664013 26.254206 8.262622
LeftLeg 57.763390 -0.000000 -0.000000
LeftFoot -16.710375 -11.468324 -27.268331
LeftToeBase 16.795309 -0.000000 -0.000000
Spine 19.432192 -12.592885 -13.351879
RightShoulder -7.144946 -17.379248 -18.017862
RightArm 3.839300 33.143934 54.000338
RightForeArm 18.251079 0.000000 23.161424
RightHand 8.676633 -0.000000 -13.379023
RightHandThumb1 -24.326973 -0.000000 -32.862282
LeftShoulder -23.209181 34.087306 11.577136
LeftArm 49.742244 -43.491232 -65.221584
LeftForeArm 35.761916 -0.000000 11.061807
LeftHand -17.583806 0.000000 -0.568029
LeftHandThumb1 -26.253704 0.000000 33.147579
Head -5.033832 11.743278 -3.744810
204
root 17.801410 31.366621 2.677488 10.990762 21.455706 1.337906
RightUpLeg 12.132538 -17.879760 -32.169553
RightLeg -7.763952 -0.000000 0.000000
RightFoot -10.331293 -19.438076 43.563243
RightToeBase 9.640069 -0.000000 -0.000000
LeftUpLeg -48.440560 26.695678 7.779816
LeftLeg 57.834686 -0.000000 -0.000000
LeftFoot -17.818598 -9.274499 -26.731499
LeftToeBase 15.718029 -0.000000 -0.000000
Spine 19.585231 -12.803597 -13.778944
RightShoulder -7.148964 -17.280554 -18.051049
RightArm 3.523460 33.118528 53.802859
RightForeArm 18.351257 0.000000 23.076713
RightHand 8.663946 -0.000000 -13.381065
RightHandThumb1 -24.326973 -0.000000 -32.862282
LeftShoulder -23.072118 34.094564 11.655277
LeftArm 49.834893 -43.474759 -65.329457
LeftForeArm 35.832814 -0.000000 11.011986
LeftHand -17.565246 0.000000 -0.461674
LeftHandThumb1 -26.253704 0.000000 33.147579
Head -5.263893 11.692856 -3.633560
205
root 17.813511 31.352227 2.619459 11.382024 21.744392 1.275423
RightUpLeg 11.935329 -18.014141 -32.062859
RightLeg -7.873394 -0.000000 0.000000
RightFoot -10.175422 -19.500794 43.577600
RightToeBase 9.632975 -0.000000 -0.000000
LeftUpLeg -49.219698 27.186410 7.273978
LeftLeg 58.007171 -0.000000 -0.000000
LeftFoot -19.178907 -6.771564 -25.809508
LeftToeBase 13.151768 -0.000000 -0.000000
Spine 19.782047 -13.018080 -14.154402
RightShoulder -7.198019 -17.405775 -18.120213
RightArm 3.547418 33.432211 53.837689
RightForeArm 18.315582 -0.000000 22.932386
RightHand 8.628800 -0.000000 -13.407988
RightHandThumb1 -24.326973 -0.000000 -32.862282
LeftShoulder -22.888742 33.985451 11.753505
LeftArm 49.752578 -43.343995 -65.183847
LeftForeArm 35.750705 -0.000000 10.790262
LeftHand -17.504342 -0.000000 -0.330850
LeftHandThumb1 -26.253704 0.000000 33.147579
Head -5.521874 11.621576 -3.585773
206
root 17.825359 31.331492 2.570851 11.739261 21.975248 1.148854
RightUpLeg 11.727445 -18.156741 -31.910713
RightLeg -7.994088 -0.000000 0.000000
RightFoot -9.991990 -19.509372 43.595025
RightToeBase 9.614681 -0.000000 -0.000000
LeftUpLeg -50.008751 27.780623 6.803668
LeftLeg 58.234647 -0.000000 -0.000000
LeftFoot -20.431649 -4.375605 -24.859017
LeftToeBase 10.945815 -0.000000 -0.000000
Spine 19.923226 -13.146056 -14.457753
RightShoulder -7.179159 -17.343235 -18.206996
RightArm 3.215594 33.526990 53.614691
RightForeArm 18.513651 -0.000000 22.835830
RightHand 8.578804 -0.000000 -13.700135
RightHandThumb1 -24.326973 -0.000000 -32.862282
LeftShoulder -22.670710 33.952930 11.882641
LeftArm 49.715513 -43.244427 -65.187799
LeftForeArm 35.646487 -0.000000 10.730895
LeftHand -17.474114 0.000000 -0.420932
LeftHandThumb1 -26.253704 0.000000 33.147579
Head -5.686295 11.511043 -3.516639
